<svg xmlns="http://www.w3.org/2000/svg" viewBox="0 0 500 500" width="32" height="32"><path d="M77.66 236.19c-95.18 54.95-95.17 144 0 199s249.49 54.95 344.67 0 95.17-144 0-199-249.49-54.95-344.67 0" style="fill:#fafafa"/><path d="m478.9 317.14-15.62-17.74-164.66-95.22c-4.1-2.8-10.24 2.88-12.63 8.61a13.4 13.4 0 0 0-.84 2.66c-.46 2.38-.06 4.53 1.71 5.74l166 96 22.78 4.5 6.2 1.23a.89.89 0 0 0 .85-1.47ZM201.79 194.93 19.69 317.08c-2.71 1.82-2.7 4.57 0 6.15l246.2 142a10.17 10.17 0 0 0 9.85-.44l182.1-122.15c2.71-1.82 2.7-4.58 0-6.16l-246.2-141.99a10.18 10.18 0 0 0-9.85.44" style="fill:#e0e0e0"/><path d="m305.9 223.6 2.13 1.22 2.56 1.48 145.21 84c-.8-1.79-.18-5.36 1.65-8.78 2.12-4 5.37-7.15 7.72-7.27l-144.52-83.6-4.91-2.82c3.08 2-6.74 17.73-9.84 15.77" style="fill:#455a64"/><path d="m320.43 210.51-4.76-2.72c-1.35-.83-3.91 1.6-6.16 4.81-3 4.26-5.42 9.9-3.63 11l3.51 2 1.26.69c-1.79-1.1.63-6.75 3.63-11 2.15-3.07 4.62-5.44 6-4.87a.3.3 0 0 1 .15.09" style="fill:#ebebeb"/><path d="M319.24 209.84c-3.14-1.94-12.92 13.87-9.79 15.81l4.75 2.73c-3.13-1.94 6.65-17.75 9.79-15.81Z" style="fill:#009cff"/><path d="m328.51 215.18-4.69-2.7c-3.06-1.93-12.66 13.24-10.06 15.65a.8.8 0 0 0 .17.13l4.74 2.68c-3.07-1.94 6.73-17.73 9.84-15.76" style="fill:#ebebeb"/><path d="M315.74 207.8h-.07c-1.34-.86-3.9 1.59-6.15 4.81-3 4.18-5.38 9.71-3.71 10.94L286 212.16c-1.59-1.09-2-3-1.54-5.17 1.1-5.78 7.86-13.11 12.14-10.19ZM477.83 311c-1.64 2.22-1.48 3.31-1.48 3.31l-20.55-4.05c-2-3.11-.7-8.17 2.12-11.77l.9.51Z" style="fill:#f28f8f"/><path d="m481.94 315.42-5.59-1.09s-.25-1.09 1.48-3.31l4.88 3.08a.81.81 0 0 1-.06 1.12.76.76 0 0 1-.71.2" style="fill:#37474f"/><path d="m465.16 294.23 14.1 16a2.56 2.56 0 0 0-1.45.8l-19-12-.9-.51c1.93-2.47 4.55-4.26 7.25-4.29" style="fill:#ffa8a7"/><path d="M477.83 311a1.94 1.94 0 0 1 1.45-.8l3.43 3.88Z" style="fill:#455a64"/><path d="m457.92 298.51-171.47-96.34a14.8 14.8 0 0 0-2 4.82c-.42 2.15-.05 4.07 1.55 5.17l19.9 11.44 2.13 1.22 2.56 1.48 145.21 84c-2.51-3.88.2-9.6 2.12-11.79" style="opacity:.2"/><path d="M206.49 201.09 33.83 307.41l-3.53 6.21v4.88a6.77 6.77 0 0 0 3.58 5.89l228.75 132.26a11 11 0 0 0 5.95 1.32 11.67 11.67 0 0 0 5.93-1.85l168.76-113.26v-4.87Z" style="fill:#263238"/><path d="M268.55 453.1a10.94 10.94 0 0 1-5.94-1.33L33.88 319.51a6.76 6.76 0 0 1-3.58-5.89 7.47 7.47 0 0 1 3.53-6.21l165-110.74L443.25 338 274.48 451.24a11.7 11.7 0 0 1-5.93 1.86" style="fill:#009cff"/><path d="M198.79 182.37 35.64 291.85 34 294.46l.08 19a2.94 2.94 0 0 0 1.69 2.46l228.7 132.25a8.39 8.39 0 0 0 8.12-.36l163.16-109.48-.09-19Z" style="fill:#ebebeb"/><path d="m435.67 319.34-2 1.37-26.55 17.81-4.94 3.33-129.62 87a8.4 8.4 0 0 1-8.12.36L35.65 296.92c-2.23-1.3-2.24-3.58 0-5.08l2.17-1.45 161-108 234.82 135.77.49.3Z" style="fill:#f0f0f0"/><path d="m268.45 430.06.08 19a7.5 7.5 0 0 1-4-.88L35.74 315.91a2.92 2.92 0 0 1-1.68-2.46l-.09-19a3 3 0 0 0 1.68 2.46L264.4 429.18a7.5 7.5 0 0 0 4.05.88" style="fill:#e0e0e0"/><path d="m435.66 316.81-29.37 19.7-4.61 3.09-129.17 86.68a8.4 8.4 0 0 1-8.12.37L59.55 308.21c-1.84-1-3.55-2-5.15-3-8.34-5.1-13.37-9.77-16.6-14.84l-.39-.64a3.5 3.5 0 0 1-.52-1.29 4.13 4.13 0 0 1 2.84-4.59 76.3 76.3 0 0 0 15.37-7.63l.2-.13 143.47-96.28Z" style="fill:#fff"/><path d="m198.81 181 235 135.86-28 18.81-4.6 3.09L272 425.45a7.3 7.3 0 0 1-3.93 1.07 6.34 6.34 0 0 1-3.14-.74L60 307.33c-1.67-.92-3.35-1.89-5.11-2.95-7.85-4.81-13-9.42-16.27-14.52l-.18-.29-.22-.35a2.6 2.6 0 0 1-.38-1 3.14 3.14 0 0 1 2.2-3.45 76.7 76.7 0 0 0 15.56-7.73l.12-.07h.06l143-95.93m0-1.18L55.3 276.11l-.2.13a76.3 76.3 0 0 1-15.37 7.63 4.13 4.13 0 0 0-2.84 4.59 3.5 3.5 0 0 0 .52 1.29l.39.64c3.23 5.07 8.26 9.74 16.6 14.84 1.6 1 3.31 2 5.15 3l204.84 118.42a7.3 7.3 0 0 0 3.64.87 8.24 8.24 0 0 0 4.48-1.24l129.17-86.68 4.61-3.09 29.37-19.7-236.89-137Z" style="fill:#e0e0e0"/><path d="M405.16 315.94c-2.08 1.41-2.07 3.54 0 4.76a7.82 7.82 0 0 0 7.59-.34c2.09-1.41 2.09-3.54 0-4.76a7.79 7.79 0 0 0-7.59.34" style="opacity:.1"/><path d="M429.47 299.46c-2.9-1.67-6.52-1.23-10.21 1.23-5.7 3.85-10.62 12.07-12.74 20.54a6.9 6.9 0 0 0 2.8.24c2-7.55 6.31-14.79 11.36-18.2a9.4 9.4 0 0 1 4.65-1.75 4.94 4.94 0 0 1 2.74.64c2.45 1.42 3.87 5.07 3.89 10a20 20 0 0 1-.12 2.44l2.67 1.55a32 32 0 0 0 .27-4.12c-.03-6.03-1.96-10.63-5.31-12.57M434.26 317.74a5 5 0 0 1-.13.72l-.49-.3Z" style="fill:#263238"/><path d="M382.24 302.68c-2.08 1.41-2.07 3.54 0 4.76a7.82 7.82 0 0 0 7.59-.34c2.09-1.41 2.09-3.54 0-4.76a7.81 7.81 0 0 0-7.59.34" style="opacity:.1"/><path d="M406.55 286.21c-2.9-1.68-6.52-1.24-10.2 1.22-5.71 3.85-10.63 12.07-12.75 20.55a7.3 7.3 0 0 0 2.8.24c2-7.56 6.32-14.8 11.36-18.21a9.4 9.4 0 0 1 4.65-1.75 4.93 4.93 0 0 1 2.74.65c2.45 1.41 3.87 5.06 3.89 10a20 20 0 0 1-.12 2.44l2.67 1.55a29 29 0 0 0 .27-4.12c-.03-6.05-1.96-10.63-5.31-12.57" style="fill:#263238"/><path d="M359.31 289.43c-2.07 1.4-2.07 3.53 0 4.76a7.87 7.87 0 0 0 7.59-.34c2.1-1.41 2.09-3.54 0-4.76a7.81 7.81 0 0 0-7.59.34" style="opacity:.1"/><path d="M383.62 273c-2.89-1.68-6.51-1.23-10.2 1.22-5.71 3.85-10.62 12.07-12.75 20.55a7.3 7.3 0 0 0 2.8.24c2-7.56 6.32-14.8 11.37-18.21a9.35 9.35 0 0 1 4.64-1.75 5.07 5.07 0 0 1 2.75.65c2.44 1.41 3.87 5.06 3.89 10a20 20 0 0 1-.13 2.45l2.68 1.54a30 30 0 0 0 .26-4.11c-.03-6.11-1.93-10.69-5.31-12.58" style="fill:#263238"/><path d="M336.39 276.17c-2.08 1.41-2.07 3.54 0 4.76a7.84 7.84 0 0 0 7.59-.33c2.09-1.42 2.09-3.55 0-4.77a7.84 7.84 0 0 0-7.59.34" style="opacity:.1"/><path d="M360.7 259.7c-2.9-1.68-6.52-1.23-10.2 1.23-5.71 3.84-10.63 12.06-12.75 20.54a7.3 7.3 0 0 0 2.8.24c1.95-7.56 6.31-14.8 11.37-18.21a9.35 9.35 0 0 1 4.64-1.75 5.07 5.07 0 0 1 2.75.65c2.44 1.41 3.86 5.06 3.88 10a20 20 0 0 1-.12 2.45l2.68 1.54a32 32 0 0 0 .26-4.11c-.01-6.06-1.96-10.64-5.31-12.58" style="fill:#263238"/><path d="M313.47 262.92c-2.08 1.41-2.07 3.54 0 4.76a7.8 7.8 0 0 0 7.58-.34c2.1-1.41 2.09-3.54 0-4.76a7.79 7.79 0 0 0-7.58.34" style="opacity:.1"/><path d="M337.78 246.44c-2.9-1.68-6.52-1.23-10.2 1.23-5.71 3.85-10.63 12.06-12.75 20.54a6.9 6.9 0 0 0 2.8.24c1.95-7.55 6.31-14.79 11.36-18.2a9.5 9.5 0 0 1 4.65-1.76 5.06 5.06 0 0 1 2.74.65c2.45 1.42 3.87 5.07 3.89 10a20 20 0 0 1-.12 2.44l2.67 1.54a30 30 0 0 0 .26-4.11c-.02-6.01-1.96-10.63-5.3-12.57" style="fill:#263238"/><path d="M290.54 249.66c-2.08 1.41-2.07 3.54 0 4.76a7.8 7.8 0 0 0 7.58-.34c2.1-1.41 2.09-3.54 0-4.76a7.81 7.81 0 0 0-7.58.34" style="opacity:.1"/><path d="M314.85 233.18c-2.9-1.67-6.52-1.22-10.2 1.23-5.71 3.85-10.65 12.07-12.75 20.59a7.2 7.2 0 0 0 2.8.24c1.95-7.56 6.31-14.8 11.36-18.21a9.4 9.4 0 0 1 4.65-1.75 5 5 0 0 1 2.74.65c2.45 1.41 3.87 5.06 3.89 10a20 20 0 0 1-.12 2.44l2.67 1.55a32 32 0 0 0 .27-4.11c-.03-6.1-1.96-10.69-5.31-12.63" style="fill:#263238"/><path d="M267.62 236.41c-2.08 1.41-2.07 3.54 0 4.76a7.8 7.8 0 0 0 7.58-.34c2.1-1.41 2.09-3.54 0-4.76a7.79 7.79 0 0 0-7.58.34" style="opacity:.1"/><path d="M291.93 219.93c-2.9-1.67-6.52-1.23-10.21 1.23C276 225 271.1 233.23 269 241.7a6.9 6.9 0 0 0 2.8.24c2-7.55 6.31-14.79 11.36-18.21a9.5 9.5 0 0 1 4.65-1.74 5 5 0 0 1 2.74.64c2.45 1.42 3.87 5.07 3.89 10a22 22 0 0 1-.12 2.44l2.67 1.54a32 32 0 0 0 .27-4.11c-.05-6.04-1.98-10.63-5.33-12.57" style="fill:#263238"/><path d="M244.69 223.15c-2.08 1.41-2.07 3.54 0 4.76a7.82 7.82 0 0 0 7.59-.34c2.09-1.4 2.09-3.54 0-4.76a7.84 7.84 0 0 0-7.59.34" style="opacity:.1"/><path d="M269 206.68c-2.9-1.68-6.51-1.23-10.2 1.22-5.71 3.85-10.63 12.07-12.75 20.55a7.2 7.2 0 0 0 2.8.24c2-7.56 6.31-14.8 11.37-18.21a9.35 9.35 0 0 1 4.64-1.75 5 5 0 0 1 2.74.65c2.45 1.41 3.87 5.06 3.89 10a20 20 0 0 1-.12 2.44l2.68 1.55a32 32 0 0 0 .26-4.11c-.03-6.06-1.96-10.64-5.31-12.58" style="fill:#263238"/><path d="M221.77 209.9c-2.08 1.4-2.07 3.53 0 4.76a7.84 7.84 0 0 0 7.59-.34c2.09-1.41 2.09-3.54 0-4.76a7.81 7.81 0 0 0-7.59.34" style="opacity:.1"/><path d="M246.08 193.42c-2.9-1.68-6.52-1.23-10.2 1.23-5.71 3.85-10.63 12.06-12.75 20.54a7.1 7.1 0 0 0 2.8.24c1.95-7.56 6.31-14.8 11.36-18.21a9.5 9.5 0 0 1 4.65-1.75 5 5 0 0 1 2.74.65c2.45 1.41 3.87 5.06 3.89 10a20 20 0 0 1-.12 2.45l2.67 1.54a30 30 0 0 0 .27-4.11c-.03-6.06-1.96-10.64-5.31-12.58" style="fill:#263238"/><path d="M198.84 196.64c-2.08 1.41-2.07 3.54 0 4.76a7.82 7.82 0 0 0 7.59-.34c2.1-1.41 2.09-3.54 0-4.76a7.84 7.84 0 0 0-7.59.34" style="opacity:.1"/><path d="M223.15 180.17c-2.89-1.68-6.51-1.23-10.2 1.22-5.71 3.85-10.62 12.07-12.75 20.55a7.3 7.3 0 0 0 2.8.24c2-7.56 6.32-14.8 11.37-18.21a9.35 9.35 0 0 1 4.64-1.75 5 5 0 0 1 2.75.65c2.44 1.41 3.87 5.06 3.89 10a22 22 0 0 1-.12 2.44l2.67 1.55a30 30 0 0 0 .26-4.11c-.03-6.06-1.96-10.64-5.31-12.58" style="fill:#263238"/><path d="M245.47 402a2.43 2.43 0 0 1-2.24-1.29 3 3 0 0 1 .92-3.85l125.52-84.23a2.42 2.42 0 0 1 3.52.86 3 3 0 0 1-.92 3.85L246.76 401.6a2.54 2.54 0 0 1-1.29.4M230.19 393.2a2.43 2.43 0 0 1-2.24-1.29 3 3 0 0 1 .93-3.85l125.51-84.24a2.44 2.44 0 0 1 3.53.86 3 3 0 0 1-.93 3.85l-125.51 84.24a2.5 2.5 0 0 1-1.29.43M214.9 384.36a2.42 2.42 0 0 1-2.23-1.3 3 3 0 0 1 .92-3.85L339.11 295a2.44 2.44 0 0 1 3.52.86 3 3 0 0 1-.92 3.85l-125.52 84.21a2.53 2.53 0 0 1-1.29.44M199.62 375.53a2.44 2.44 0 0 1-2.24-1.3 3 3 0 0 1 .92-3.85l125.52-84.23a2.41 2.41 0 0 1 3.52.86 3 3 0 0 1-.92 3.85L200.9 375.09a2.5 2.5 0 0 1-1.28.44M184.33 366.68a2.43 2.43 0 0 1-2.24-1.29 3 3 0 0 1 .93-3.85l125.52-84.23a2.44 2.44 0 0 1 3.53.86 3 3 0 0 1-.93 3.85l-125.52 84.23a2.5 2.5 0 0 1-1.29.43M169.05 357.85a2.42 2.42 0 0 1-2.24-1.3 3 3 0 0 1 .93-3.85l125.51-84.23a2.43 2.43 0 0 1 3.53.86 3 3 0 0 1-.92 3.85l-125.52 84.23a2.44 2.44 0 0 1-1.29.44M153.77 349a2.44 2.44 0 0 1-2.24-1.3 3 3 0 0 1 .92-3.85L278 259.63a2.42 2.42 0 0 1 3.52.86 3 3 0 0 1-.92 3.85l-125.55 84.23a2.5 2.5 0 0 1-1.28.43M138.48 340.17a2.43 2.43 0 0 1-2.24-1.29 3 3 0 0 1 .93-3.85l125.52-84.23a2.41 2.41 0 0 1 3.52.86 3 3 0 0 1-.92 3.85l-125.52 84.23a2.54 2.54 0 0 1-1.29.43M123.2 331.33A2.43 2.43 0 0 1 121 330a3 3 0 0 1 .93-3.85L247.4 242a2.42 2.42 0 0 1 3.53.86 3 3 0 0 1-.93 3.85L124.49 330.9a2.5 2.5 0 0 1-1.29.43M107.91 322.5a2.42 2.42 0 0 1-2.23-1.3 3 3 0 0 1 .92-3.85l125.52-84.23a2.42 2.42 0 0 1 3.52.86 3 3 0 0 1-.92 3.85L109.2 322.06a2.53 2.53 0 0 1-1.29.44M92.63 313.67a2.44 2.44 0 0 1-2.24-1.3 3 3 0 0 1 .92-3.85l125.53-84.24a2.42 2.42 0 0 1 3.52.86 3 3 0 0 1-.92 3.85L93.91 313.23a2.5 2.5 0 0 1-1.28.44M77.34 304.82a2.43 2.43 0 0 1-2.24-1.29 3 3 0 0 1 .93-3.85l125.52-84.23a2.43 2.43 0 0 1 3.53.86 3 3 0 0 1-.93 3.85L78.63 304.39a2.5 2.5 0 0 1-1.29.43M62.06 296a2.44 2.44 0 0 1-2.24-1.29 3 3 0 0 1 .93-3.85l125.51-84.24a2.44 2.44 0 0 1 3.53.86 3 3 0 0 1-.93 3.85L63.35 295.56a2.5 2.5 0 0 1-1.29.44" style="fill:#ebebeb"/><path d="M261 410.87a2.44 2.44 0 0 1-2.24-1.3 3 3 0 0 1 .92-3.85l132.76-89.25a2.43 2.43 0 0 1 3.53.86 3 3 0 0 1-.93 3.86l-132.76 89.24a2.56 2.56 0 0 1-1.28.44" style="fill:#009cff"/><path d="M314 207.17c-4.52-8.16-9.85-17.15-15.46-30.32s-10.38-13.28-23-17.8c-10.47-3.74-39-15.75-50.39-20.6-14.66-6.25-18.71-7-31.2-21.14-13.59-15.43-59.22-66.08-59.22-66.08l-58 107.35c19.37 11.14 35.58 20.42 47.37 27.95 10.3 6.56 16.61 12.24 22.37 32.51 3.92 13.76 4.38 19.73 15.15 32 8.35 9.54 10.79 12.24 20.46 22.83L220 258a14.8 14.8 0 0 1-2.18-6.34c-.32-8.13 11.15-6.86 16.4-6.31 12.29 1.3 51.76 18.76 51.76 18.76l23.32-18.43c3.78-4 7.48-8.87 3.61-20 2.6-2.95 5.61-10.34 1.09-18.51" style="fill:#ffa8a7"/><path d="M285.16 176.23a14.8 14.8 0 0 0-3.69-3.28c-.76-.52-1.51-1-2.27-1.53a23.5 23.5 0 0 0-2.74-1.69c-.18-.08-.15.22-.08.3 2.55 2.56 6 4 8.07 7.07a28 28 0 0 1 2.15 4.07c.82 1.77 1.66 3.51 2.55 5.25.07.13.16 0 .14-.11-.93-3.49-1.96-7.12-4.13-10.08M313 225.76a12.9 12.9 0 0 0 1.67-2.6c-2.67-5.59-9-15.57-14.07-28 3.51 9.9 6.51 14.84 12.4 30.6M293.61 175.94a10.3 10.3 0 0 0-.6-2.3 11.6 11.6 0 0 0-2.18-3.67 13.2 13.2 0 0 0-3.92-2.69 20.2 20.2 0 0 0-4.91-1.89s0 .06 0 .08c1.44.82 2.93 1.56 4.37 2.38a12.6 12.6 0 0 1 3.66 2.72c1.78 2.11 2.44 4.9 3.62 7.34.07.14.22.11.22 0a11.3 11.3 0 0 0-.26-1.97M312.3 242.08c-.44-5.83-3.48-9.59-6.65-16.84-4-9.1-12.82-26.48-15.79-36.67 1 9.15 7.11 40.8 11.56 63.4l7.92-6.26a24.2 24.2 0 0 0 2.96-3.63M219.21 256.81a22 22 0 0 0-1.64-3.39c-.57-1.1-1.07-2.24-1.56-3.38a52 52 0 0 1-2.33-6.54 31 31 0 0 1-1.11-6.95 28 28 0 0 1 .07-3.44c.05-.6.13-1.2.22-1.8.07-.45.2-.95.23-1.4s0-.69.06-1c0-.2-.36-.68-.51-.36a10.3 10.3 0 0 0-.67 1.61 15 15 0 0 0-.34 1.53 22 22 0 0 0-.31 3.05 28.7 28.7 0 0 0 .41 5.71 36.3 36.3 0 0 0 3.69 10.69c.51 1 1.06 1.91 1.61 2.86a15.6 15.6 0 0 0 2 3c.15.08.21-.1.18-.19" style="fill:#f28f8f"/><path d="m291.49 249.55-23.89-45.16s-24.41 7-36 13.41-17 28.6-12.55 39.17l.47.1a12.9 12.9 0 0 1-1.68-5.38c-.32-8.13 11.15-6.86 16.4-6.31 12.29 1.3 51.76 18.76 51.76 18.76l5.8-4.59Z" style="fill:#f28f8f"/><ellipse cx="103.01" cy="102.7" rx="61.86" ry="35" style="fill:#ffa8a7" transform="rotate(-66.95 103.002 102.703)"/><path d="M272.73 168.2c13.85 6.11 15.48 13.72 17.93 23.57s11.82 30.83 15.49 40.31 4.48 11.91.81 24.75-14.07 38-14.07 38-31.17-98.68-33.2-108.83-.82-21.45 13.04-17.8" style="fill:#ffa8a7"/><path d="M303.87 250.23a.17.17 0 0 0 0 .17c.44.14 1.11-.16 1.55-.24s1.12-.22 1.68-.3 1.1-.13 1.68-.16c.07-.37.13-.73.19-1.07a17.7 17.7 0 0 0-4.14 1 1.75 1.75 0 0 0-.96.6m-.06-6.7a21.7 21.7 0 0 1 4.27-1.13 11 11 0 0 1 1.15-.09c0-.38-.09-.76-.16-1.13-.42 0-.83.06-1.25.12a11.6 11.6 0 0 0-4.48 1.47c-.45.23.05.9.47.76m4.64 1.47a21 21 0 0 0-2.64.28 14.7 14.7 0 0 0-5.12 1.74c-.38.23.13.74.46.63a32 32 0 0 1 4.58-1.37A18 18 0 0 1 308 246h1.24c0-.35.05-.68.06-1z" style="fill:#f28f8f"/><path d="M294.81 229.84a285 285 0 0 1-14.75-34.21l-12.46-3.86-4.13 7.94c8.79 29.79 29.42 95.11 29.42 95.11s1.54-3.73 3.65-9c0 0 2.78-23.08 4-33.41s-1.72-15.04-5.73-22.57" style="fill:#f28f8f"/><path d="M249.9 286.5c-.77-.52-1.54-1-2.3-1.59-10.31-7.58-21.29-15.39-27.6-26.91l-38 15.88a241 241 0 0 0 20.66 20.16c6.15 5.58 24.85 13.24 37 19.35s17.25 9.14 20.31 7.42c3.58-1.92 7.97-22.05-10.07-34.31" style="fill:#ffa8a7"/><path d="M206.08 296.57c.13-.44.26-.87.42-1.3a25 25 0 0 1 1.15-2.62 14.8 14.8 0 0 0 1.3-2.57c.05-.22-.25-.59-.47-.42a8.2 8.2 0 0 0-1.88 2.57 21 21 0 0 0-1.37 3.06c-.07.19-.12.39-.19.58ZM210.05 298.58a24.7 24.7 0 0 1 1.62-4.35 17.5 17.5 0 0 1 2.13-3.31 15 15 0 0 1 1.93-2c.58-.47 1.19-.89 1.72-1.41.14-.14-.06-.51-.26-.46a8.7 8.7 0 0 0-3.84 2.46 16.4 16.4 0 0 0-2.83 3.78 22.2 22.2 0 0 0-1.9 4.78l1.35.78c.03-.05.03-.16.08-.27M214.21 298.25a25 25 0 0 1 1.49-3.34 14 14 0 0 1 .82-1.34 4.3 4.3 0 0 0 .81-1.35c0-.22-.26-.57-.49-.45a7.86 7.86 0 0 0-2.38 2.82 22 22 0 0 0-1.62 3.27c-.28.72-.53 1.45-.76 2.19l1.3.69c.26-.84.52-1.67.83-2.49" style="fill:#f28f8f"/><path d="M234.6 310.9a16.62 16.62 0 0 1 5.22-9.92s8.71 3.65 12.43 7 6.59 10.74 4.27 13.11c-5.33.02-12.52-5.23-21.92-10.19" style="fill:#ffc4c3"/><path d="M234.6 310.9c1.1.58 2.16 1.16 3.2 1.74a48.7 48.7 0 0 0 2-11.66 16.62 16.62 0 0 0-5.2 9.92" style="fill:#fff;opacity:.30000000000000004"/><path d="M250.62 225.37c6.1 10 15.48 28 15.59 30.32.62 13.13-.13 26.85-.13 41.05s-.12 24.57 6.11 34c5.64 8.5 16 10.84 17.47 1.55 1.28-7.95 2.08-24.13 3.23-37.44s4.2-32.59 5-43.36-6.28-21.34-11.05-35.27c-4.14-12.11-7.65-27.41-14.14-33.9s-31.05-18.65-40-23.37Z" style="fill:#ffa8a7"/><path d="M297.18 252.32a16 16 0 0 1-2.31 0 30.6 30.6 0 0 1-4.74-.86c-.4-.08-.3.49-.06.62a12.7 12.7 0 0 0 5 1.15 17 17 0 0 0 2.58 0h.08c0-.33.05-.64.07-.95ZM288 242.67c-.27.13.07.6.31.54a14.1 14.1 0 0 1 5.7-.32 12.2 12.2 0 0 1 2.46.71l.73.35c-.09-.43-.19-.86-.29-1.29a12.3 12.3 0 0 0-2.65-.74 10.57 10.57 0 0 0-6.26.75M291.67 246.15a18.5 18.5 0 0 0-4.52.38c-1.25.28-3.08.59-3.9 1.68 0 0 0 .17.05.17a7.2 7.2 0 0 0 2.05-.36c.72-.18 1.44-.34 2.17-.45a18.7 18.7 0 0 1 8.09.48 17 17 0 0 1 2.26.84c0-.51 0-1-.09-1.54-.55-.2-1.11-.38-1.65-.53a18.8 18.8 0 0 0-4.46-.67M292.11 302.42c-.52-.17-1.06-.32-1.59-.47-1.1-.29-2.2-.55-3.32-.76a.43.43 0 0 0-.53.35c0 .28.26.47.5.51 1 .2 2 .42 3.05.69l1.47.43.53.17.06-.87ZM288.78 298.78a28 28 0 0 1 3.32 1.22l.36.16.09-1.18-.12-.06a29 29 0 0 0-3.53-1.16 30 30 0 0 0-3.61-.7 11.3 11.3 0 0 0-3.89-.07c-.24 0-.13.43.07.47 1.27.25 2.57.32 3.84.54a32 32 0 0 1 3.47.78M286.91 295.63a44 44 0 0 1 4.67 1.32c.37.13.73.28 1.09.43 0-.33.06-.65.08-1l-.76-.29a29 29 0 0 0-5.13-1.16c-.45-.03-.28.63.05.7" style="fill:#f28f8f"/><path d="M291.49 313.35c-5.86-5.65-12-3.64-12-3.64a76.2 76.2 0 0 0-.81 14.45c.42 6.76 4.88 10.07 8.29 10.65s3.86-6.09 4.52-21.46" style="fill:#ffc4c3"/><path d="M291.38 315.84c0-.8.07-1.63.11-2.49-5.86-5.65-12-3.64-12-3.64 1.17 2.08 7.65 5.73 11.89 6.13" style="fill:#fff;opacity:.30000000000000004"/><path d="M276 184.11c-2.71-3.7-6.77-5.88-10.77-7.92a61 61 0 0 1-6.56-3.69c-.12-.09-.15.17-.08.24 3.17 2.8 7 4.75 10.46 7.09a21.08 21.08 0 0 1 8.39 10.06c1.06 2.41 1.94 4.89 2.9 7.34.07.19.22.07.2-.09-.54-4.54-1.82-9.3-4.54-13.03" style="fill:#f28f8f"/><path d="M207.4 66.3a3.8 3.8 0 0 1 .42.86l-.54-1.93a3 3 0 0 0-.11-.34v-.07a2 2 0 0 0-.14-.34l-.08-.16c0-.09-.09-.17-.15-.26l-.28-.4c-.11-.13-.22-.26-.34-.38a7.5 7.5 0 0 0-3.44-1.83c-5.13-1.35-12.32.6-16.06 4.36a8.2 8.2 0 0 0-1.3 1.63 2 2 0 0 0-.19.32.5.5 0 0 0-.1.19 2.3 2.3 0 0 0-.18.39 4.7 4.7 0 0 0-.39 1.36 4 4 0 0 0 .09 1.65l.61 2.21a3.9 3.9 0 0 1-.14-1.13 6.67 6.67 0 0 0 4.11 2.65c5.13 1.36 12.33-.59 16.07-4.35a6.63 6.63 0 0 0 2.14-4.43" style="fill:#009cff"/><path d="m277.77 325.61-22.71 6.2-.6-2.22-69.3-256a3.9 3.9 0 0 1-.14-1.13 6.7 6.7 0 0 1 2.22-4.46c3.74-3.76 10.93-5.7 16.06-4.34a7.4 7.4 0 0 1 3.44 1.81 4.6 4.6 0 0 1 .66.83 3.8 3.8 0 0 1 .42.86s0 .11.05.15v.06Z" style="fill:#f0f0f0"/><path d="M273.18 321.88c5.13 1.35 6.26 5.51 2.51 9.27s-10.93 5.71-16.06 4.35-6.25-5.51-2.51-9.27 10.93-5.71 16.06-4.35" style="fill:#009cff"/><path d="M277.15 343.26v-.31l.7-15.77V327a3 3 0 0 0 0-.29v-.16c-.05-2.1-1.67-3.89-4.71-4.69-5.13-1.36-12.32.59-16.06 4.35-2.17 2.18-2.69 4.5-1.76 6.32l.08.11a4 4 0 0 0 .33.52l.07.11 8.54 13.24a3.77 3.77 0 0 0 2.32 1.48 10.49 10.49 0 0 0 9.18-2.48 3.93 3.93 0 0 0 1.31-2.25" style="fill:#e0e0e0"/><path d="M228.36 172.09a.07.07 0 0 0 0-.06l-.08-.31a2.2 2.2 0 0 0-1.57-1.17 6.57 6.57 0 0 0-5.72 1.56 2.17 2.17 0 0 0-.77 1.74l.11.4 44 162.46 9.29 2.46Z" style="fill:#455a64"/><path d="m260.74 323.65 3.54 13.08 9.29 2.46-4.8-17.72a19.9 19.9 0 0 0-8.03 2.18" style="fill:#37474f"/><path d="m276.2 350.14.63-14.3a1.6 1.6 0 0 0 0-.38c0-1.52-1.16-2.8-3.34-3.38a13 13 0 0 0-11.35 3.08c-1.53 1.54-1.91 3.16-1.26 4.45v.08l.22.34 7.9 12.14a2.13 2.13 0 0 0 1.31.83 5.89 5.89 0 0 0 5.17-1.4 2 2 0 0 0 .72-1.46" style="fill:#009cff"/><path d="m276.2 350.14.63-14.3a1.6 1.6 0 0 0 0-.38c0-1.52-1.16-2.8-3.34-3.38a13 13 0 0 0-11.35 3.08c-1.53 1.54-1.91 3.16-1.26 4.45v.08l.22.34 7.9 12.14a2.13 2.13 0 0 0 1.31.83 5.89 5.89 0 0 0 5.17-1.4 2 2 0 0 0 .72-1.46" style="opacity:.1"/><path d="M275.51 351.61a5.93 5.93 0 0 1-5.18 1.39 2.1 2.1 0 0 1-1.3-.83l-4-6.14c-.63-1-.4-2.23.79-3.44a9.49 9.49 0 0 1 8.27-2.24c1.56.41 2.4 1.33 2.42 2.42v.29l-.31 7.08a2.08 2.08 0 0 1-.69 1.47" style="fill:#009cff"/><path d="M274.7 348.62c1.65.44 2 1.77.81 3a5.89 5.89 0 0 1-5.17 1.4c-1.65-.43-2-1.77-.81-3a5.91 5.91 0 0 1 5.17-1.4" style="opacity:.1"/><path d="M207.07 93.4a2 2 0 0 0-1.62-1.32 6.49 6.49 0 0 0-5.69 1.54 2.06 2.06 0 0 0-.73 2l21.18 78.26a2.17 2.17 0 0 1 .77-1.74 6.57 6.57 0 0 1 5.72-1.56 2.2 2.2 0 0 1 1.57 1.17Z" style="fill:#fafafa"/><path d="M206.34 95.36a6.52 6.52 0 0 1-5.69 1.54 2 2 0 0 1-1.6-1.31 2 2 0 0 1 .71-2 6.49 6.49 0 0 1 5.69-1.54 2 2 0 0 1 1.62 1.32 2.07 2.07 0 0 1-.73 1.99" style="fill:#f5f5f5"/><path d="M210.55 81.78v-.1a1 1 0 0 0 0-.15l-3.71-13.67a3 3 0 0 0-.09-.32v-.08c-.48-1.4-1.85-2.55-4-3.13a16.54 16.54 0 0 0-14.45 3.92c-1.7 1.7-2.28 3.49-1.86 5l3.76 13.85a.2.2 0 0 0 0 .07v.08c.45 1.46 1.83 2.65 4.08 3.25a16.56 16.56 0 0 0 14.45-3.92c1.54-1.58 2.14-3.32 1.82-4.8" style="fill:#009cff"/><path d="M210.55 81.78v-.1a1 1 0 0 0 0-.15l-3.71-13.67a3 3 0 0 0-.09-.32v-.08c-.48-1.4-1.85-2.55-4-3.13a16.54 16.54 0 0 0-14.45 3.92c-1.7 1.7-2.28 3.49-1.86 5l3.76 13.85a.2.2 0 0 0 0 .07v.08c.45 1.46 1.83 2.65 4.08 3.25a16.56 16.56 0 0 0 14.45-3.92c1.54-1.58 2.14-3.32 1.82-4.8" style="opacity:.05"/><path d="M206.39 78.24c4.62 1.22 5.63 5 2.26 8.35a16.56 16.56 0 0 1-14.45 3.92c-4.62-1.23-5.63-5-2.26-8.35a16.54 16.54 0 0 1 14.45-3.92" style="opacity:.1"/><path d="m275.85 356.08-1.45-5.74a.94.94 0 0 0-.76-.65 3.06 3.06 0 0 0-2.65.72 1 1 0 0 0-.34.91l1.43 5.74a1.93 1.93 0 0 0 .5.83 1.95 1.95 0 0 0 3.28-1.81Z" style="fill:#455a64"/><path d="M275.89 356.45a1.3 1.3 0 0 0 0-.34 1.07 1.07 0 0 0-.74-.51 3 3 0 0 0-2.65.72.92.92 0 0 0-.33.89.4.4 0 0 0 0 .11 1 1 0 0 0 0 .1 1.55 1.55 0 0 0 .37.52 2 2 0 0 0 2.76 0 1.87 1.87 0 0 0 .59-1.49" style="fill:#263238"/><path d="M272.73 168.2c13.85 6.11 15.48 13.72 17.93 23.57s11.82 30.83 15.49 40.31 4.48 11.91.81 24.75-14.07 38-14.07 38-31.17-98.68-33.2-108.83-.82-21.45 13.04-17.8" style="fill:#ffa8a7"/><path d="M303.87 250.23a.17.17 0 0 0 0 .17c.44.14 1.11-.16 1.55-.24s1.12-.22 1.68-.3 1.1-.13 1.68-.16c.07-.37.13-.73.19-1.07a17.7 17.7 0 0 0-4.14 1 1.75 1.75 0 0 0-.96.6m-.06-6.7a21.7 21.7 0 0 1 4.27-1.13 11 11 0 0 1 1.15-.09c0-.38-.09-.76-.16-1.13-.42 0-.83.06-1.25.12a11.6 11.6 0 0 0-4.48 1.47c-.45.23.05.9.47.76m4.64 1.47a21 21 0 0 0-2.64.28 14.7 14.7 0 0 0-5.12 1.74c-.38.23.13.74.46.63a32 32 0 0 1 4.58-1.37A18 18 0 0 1 308 246h1.24c0-.35.05-.68.06-1z" style="fill:#f28f8f"/><path d="M294.81 229.84a285 285 0 0 1-14.75-34.21l-12.46-3.86-4.13 7.94c8.79 29.79 29.42 95.11 29.42 95.11s1.54-3.73 3.65-9c0 0 2.78-23.08 4-33.41s-1.72-15.04-5.73-22.57" style="fill:#f28f8f"/><path d="M249.9 286.5c-.77-.52-1.54-1-2.3-1.59-10.31-7.58-21.29-15.39-27.6-26.91l-38 15.88a241 241 0 0 0 20.66 20.16c6.15 5.58 24.85 13.24 37 19.35s17.25 9.14 20.31 7.42c3.58-1.92 7.97-22.05-10.07-34.31" style="fill:#ffa8a7"/><path d="M206.08 296.57c.13-.44.26-.87.42-1.3a25 25 0 0 1 1.15-2.62 14.8 14.8 0 0 0 1.3-2.57c.05-.22-.25-.59-.47-.42a8.2 8.2 0 0 0-1.88 2.57 21 21 0 0 0-1.37 3.06c-.07.19-.12.39-.19.58ZM210.05 298.58a24.7 24.7 0 0 1 1.62-4.35 17.5 17.5 0 0 1 2.13-3.31 15 15 0 0 1 1.93-2c.58-.47 1.19-.89 1.72-1.41.14-.14-.06-.51-.26-.46a8.7 8.7 0 0 0-3.84 2.46 16.4 16.4 0 0 0-2.83 3.78 22.2 22.2 0 0 0-1.9 4.78l1.35.78c.03-.05.03-.16.08-.27M214.21 298.25a25 25 0 0 1 1.49-3.34 14 14 0 0 1 .82-1.34 4.3 4.3 0 0 0 .81-1.35c0-.22-.26-.57-.49-.45a7.86 7.86 0 0 0-2.38 2.82 22 22 0 0 0-1.62 3.27c-.28.72-.53 1.45-.76 2.19l1.3.69c.26-.84.52-1.67.83-2.49" style="fill:#f28f8f"/><path d="M234.6 310.9a16.62 16.62 0 0 1 5.22-9.92s8.71 3.65 12.43 7 6.59 10.74 4.27 13.11c-5.33.02-12.52-5.23-21.92-10.19" style="fill:#ffc4c3"/><path d="M234.6 310.9c1.1.58 2.16 1.16 3.2 1.74a48.7 48.7 0 0 0 2-11.66 16.62 16.62 0 0 0-5.2 9.92" style="fill:#fff;opacity:.30000000000000004"/><path d="M250.62 225.37c6.1 10 15.48 28 15.59 30.32.62 13.13-.13 26.85-.13 41.05s-.12 24.57 6.11 34c5.64 8.5 16 10.84 17.47 1.55 1.28-7.95 2.08-24.13 3.23-37.44s4.2-32.59 5-43.36-6.28-21.34-11.05-35.27c-4.14-12.11-7.65-27.41-14.14-33.9s-31.05-18.65-40-23.37Z" style="fill:#ffa8a7"/><path d="M297.18 252.32a16 16 0 0 1-2.31 0 30.6 30.6 0 0 1-4.74-.86c-.4-.08-.3.49-.06.62a12.7 12.7 0 0 0 5 1.15 17 17 0 0 0 2.58 0h.08c0-.33.05-.64.07-.95ZM288 242.67c-.27.13.07.6.31.54a14.1 14.1 0 0 1 5.7-.32 12.2 12.2 0 0 1 2.46.71l.73.35c-.09-.43-.19-.86-.29-1.29a12.3 12.3 0 0 0-2.65-.74 10.57 10.57 0 0 0-6.26.75M291.67 246.15a18.5 18.5 0 0 0-4.52.38c-1.25.28-3.08.59-3.9 1.68 0 0 0 .17.05.17a7.2 7.2 0 0 0 2.05-.36c.72-.18 1.44-.34 2.17-.45a18.7 18.7 0 0 1 8.09.48 17 17 0 0 1 2.26.84c0-.51 0-1-.09-1.54-.55-.2-1.11-.38-1.65-.53a18.8 18.8 0 0 0-4.46-.67M292.11 302.42c-.52-.17-1.06-.32-1.59-.47-1.1-.29-2.2-.55-3.32-.76a.43.43 0 0 0-.53.35c0 .28.26.47.5.51 1 .2 2 .42 3.05.69l1.47.43.53.17.06-.87ZM288.78 298.78a28 28 0 0 1 3.32 1.22l.36.16.09-1.18-.12-.06a29 29 0 0 0-3.53-1.16 30 30 0 0 0-3.61-.7 11.3 11.3 0 0 0-3.89-.07c-.24 0-.13.43.07.47 1.27.25 2.57.32 3.84.54a32 32 0 0 1 3.47.78M286.91 295.63a44 44 0 0 1 4.67 1.32c.37.13.73.28 1.09.43 0-.33.06-.65.08-1l-.76-.29a29 29 0 0 0-5.13-1.16c-.45-.03-.28.63.05.7" style="fill:#f28f8f"/><path d="M291.49 313.35c-5.86-5.65-12-3.64-12-3.64a76.2 76.2 0 0 0-.81 14.45c.42 6.76 4.88 10.07 8.29 10.65s3.86-6.09 4.52-21.46" style="fill:#ffc4c3"/><path d="M291.38 315.84c0-.8.07-1.63.11-2.49-5.86-5.65-12-3.64-12-3.64 1.17 2.08 7.65 5.73 11.89 6.13" style="fill:#fff;opacity:.30000000000000004"/><path d="M276 184.11c-2.71-3.7-6.77-5.88-10.77-7.92a61 61 0 0 1-6.56-3.69c-.12-.09-.15.17-.08.24 3.17 2.8 7 4.75 10.46 7.09a21.08 21.08 0 0 1 8.39 10.06c1.06 2.41 1.94 4.89 2.9 7.34.07.19.22.07.2-.09-.54-4.54-1.82-9.3-4.54-13.03" style="fill:#f28f8f"/></svg>
